<svg id="SvgjsSvg1001" width="288" height="288" xmlns="http://www.w3.org/2000/svg" version="1.1" xmlns:xlink="http://www.w3.org/1999/xlink" xmlns:svgjs="http://svgjs.com/svgjs"><defs id="SvgjsDefs1002"></defs><g id="SvgjsG1008" transform="matrix(1,0,0,1,0,0)"><svg xmlns="http://www.w3.org/2000/svg" width="288" height="288" fill="#FFF" viewBox="0 0 24 24"><path fill="none" d="M0 0h24v24H0V0z"></path><circle cx="15.5" cy="9.5" r="1.5" fill="#bcbcbc" class="color000 svgShape"></circle><circle cx="8.5" cy="9.5" r="1.5" fill="#bcbcbc" class="color000 svgShape"></circle><path d="M11.99 2C6.47 2 2 6.48 2 12s4.47 10 9.99 10C17.52 22 22 17.52 22 12S17.52 2 11.99 2zM12 20c-4.42 0-8-3.58-8-8s3.58-8 8-8 8 3.58 8 8-3.58 8-8 8zm-5-6c.78 2.34 2.72 4 5 4s4.22-1.66 5-4H7z" fill="#bcbcbc" class="color000 svgShape"></path></svg></g></svg>